<?xml version="1.0" standalone="no"?>
<!DOCTYPE svg PUBLIC "-//W3C//DTD SVG 20010904//EN"
 "http://www.w3.org/TR/2001/REC-SVG-20010904/DTD/svg10.dtd">
<svg version="1.0" xmlns="http://www.w3.org/2000/svg"
 width="100pt" height="100pt" viewBox="0 0 500.000000 500.000000"
 preserveAspectRatio="xMidYMid meet">

<g transform="translate(0.000000,500.000000) scale(0.100000,-0.100000)"
fill="#DA9E63" stroke="none">
<path d="M2100 4064 c-149 -19 -271 -55 -404 -120 -165 -81 -266 -162 -361
-288 -146 -195 -205 -380 -205 -646 0 -271 57 -451 209 -662 182 -252 419
-396 731 -443 130 -20 214 -19 333 6 211 42 338 100 480 216 179 146 296 326
348 535 35 143 37 414 3 553 -3 15 4 25 26 37 29 16 30 16 41 -3 42 -80 52
-354 18 -522 -22 -113 -86 -298 -126 -367 -166 -286 -433 -477 -768 -546 -68
-14 -130 -19 -250 -18 -144 1 -169 3 -250 28 -223 68 -413 187 -566 356 -130
143 -185 231 -244 396 -52 143 -71 295 -57 445 19 193 62 349 137 501 35 70
41 88 29 92 -11 4 -25 -15 -50 -72 -20 -42 -42 -88 -49 -102 -23 -46 -64 -194
-81 -295 -12 -74 -15 -135 -11 -235 13 -321 109 -545 328 -768 153 -157 335
-270 533 -331 182 -56 430 -62 626 -14 91 22 245 91 342 154 109 69 128 85
226 193 70 76 94 111 142 211 98 202 140 385 140 605 0 92 -6 149 -22 215 -11
50 -23 107 -25 128 -5 40 -14 45 -33 23 -13 -16 -114 -41 -129 -32 -5 4 -26
-5 -47 -19 -20 -14 -41 -25 -46 -25 -12 0 -57 53 -52 62 3 4 48 30 102 58 127
66 151 85 134 102 -10 10 -16 10 -33 0 -12 -8 -22 -12 -23 -10 -2 2 -18 30
-36 63 -48 86 -174 247 -223 287 -134 106 -323 200 -462 229 -87 19 -304 32
-375 23z m404 -48 c150 -39 306 -121 422 -221 65 -56 164 -184 216 -280 l39
-74 -40 -20 c-22 -12 -45 -21 -50 -21 -5 0 -37 44 -71 98 -61 98 -202 253
-217 239 -4 -4 25 -40 65 -80 40 -39 83 -88 97 -107 28 -38 95 -154 95 -165 0
-7 -80 -44 -97 -45 -6 0 -15 9 -18 20 -8 27 -105 154 -158 209 -84 87 -241
176 -374 212 -117 32 -225 24 -424 -34 -86 -25 -170 -52 -187 -61 -17 -9 -53
-16 -80 -16 l-49 0 -6 -42 c-3 -24 -4 -44 -2 -47 10 -9 35 23 35 45 0 18 6 24
21 24 21 0 21 -1 -5 -34 -17 -22 -26 -47 -26 -70 l0 -35 -95 -3 c-110 -3 -132
-23 -25 -23 39 0 70 -4 70 -8 0 -5 -14 -28 -30 -52 -42 -60 -115 -252 -136
-354 -40 -199 19 -435 145 -590 42 -50 157 -138 228 -175 132 -66 308 -101
434 -85 153 19 266 64 372 148 93 74 138 127 192 226 61 112 117 355 101 440
-6 28 -2 33 50 64 46 27 58 31 66 20 5 -8 7 -72 5 -144 -7 -239 -81 -429 -233
-599 -102 -114 -123 -133 -208 -190 -119 -79 -293 -136 -416 -136 -289 0 -553
154 -754 442 -64 92 -92 157 -115 275 -27 133 -26 249 4 406 5 23 3 37 -3 37
-20 0 -36 -116 -36 -260 -1 -172 21 -269 85 -389 82 -153 229 -308 376 -398
138 -85 250 -120 408 -129 106 -6 178 7 306 55 73 28 214 113 263 159 99 95
197 219 241 306 85 171 125 366 105 514 -6 45 -8 87 -5 93 4 5 33 23 66 39 43
22 61 27 64 18 3 -7 11 -70 19 -140 27 -230 -8 -441 -105 -630 -76 -150 -285
-352 -442 -428 -115 -55 -333 -110 -441 -110 -118 0 -235 17 -355 52 -156 46
-251 103 -400 244 -147 139 -265 333 -312 511 -41 160 -43 378 -4 553 19 84
104 269 159 345 51 71 182 200 243 241 122 81 326 160 473 184 30 5 123 7 205
5 120 -3 170 -8 249 -29z m-102 -251 c115 -27 275 -116 364 -202 56 -54 183
-228 173 -237 -2 -2 -22 -13 -44 -25 -45 -24 -75 -27 -75 -8 0 31 -81 135
-146 188 -108 88 -226 141 -358 160 -42 5 -156 7 -283 3 l-214 -7 3 -131 3
-131 28 -3 c15 -2 27 -6 27 -9 0 -3 -23 -30 -51 -60 -94 -99 -144 -248 -137
-406 5 -92 8 -104 48 -183 52 -102 128 -176 236 -230 57 -29 90 -38 172 -47
88 -9 111 -9 177 7 227 53 368 203 397 420 10 75 14 86 32 86 10 0 28 7 38 17
17 15 18 14 18 -34 0 -65 -34 -191 -70 -263 -37 -73 -166 -206 -237 -243 -79
-42 -262 -80 -343 -72 -237 24 -392 127 -490 328 -47 94 -64 190 -57 307 8
132 51 239 144 362 42 55 52 78 34 78 -12 0 -102 -132 -135 -198 -84 -167 -87
-405 -6 -562 99 -194 272 -308 512 -336 100 -12 314 45 404 107 53 36 171 163
194 209 30 59 59 181 62 265 l3 80 40 22 c22 12 44 22 49 23 15 0 -1 -190 -24
-274 -42 -156 -125 -280 -260 -387 -82 -64 -117 -82 -227 -115 -262 -78 -582
17 -767 228 -111 127 -173 354 -146 537 24 166 118 382 195 449 28 25 35 39
35 68 0 27 5 37 20 41 11 3 17 10 14 15 -8 13 24 47 66 68 31 16 252 82 365
109 46 11 134 6 217 -14z m-312 -256 l0 -119 -120 0 -120 0 0 115 0 114 99 3
c54 2 108 4 120 5 20 2 21 -2 21 -118z m120 77 l0 -44 78 -17 c89 -20 260 -92
276 -117 17 -28 1 -31 -46 -7 -66 34 -230 78 -319 85 l-79 7 0 68 0 69 45 0
45 0 0 -44z m210 12 c153 -47 303 -157 356 -259 l16 -32 -51 5 c-45 5 -58 11
-109 60 -31 30 -86 71 -122 91 -72 40 -204 87 -245 87 -18 0 -28 7 -35 26 -21
53 -16 57 57 49 37 -4 97 -16 133 -27z m-212 -160 c-2 -18 -6 -32 -10 -30 -5
1 -24 2 -43 2 -32 0 -35 2 -35 30 0 29 2 30 46 30 45 0 45 0 42 -32z m29 -15
c-3 -10 -5 -4 -5 12 0 17 2 24 5 18 2 -7 2 -21 0 -30z m115 18 c72 -19 146
-51 196 -88 22 -15 23 -15 29 5 3 12 8 22 11 22 17 0 105 -112 136 -173 34
-67 37 -78 34 -147 -3 -67 -5 -75 -23 -75 -15 0 -22 11 -31 50 -22 96 -119
240 -198 294 -49 34 -154 77 -206 86 -26 4 -36 10 -37 25 -2 24 -4 24 89 1z
m-16 -55 c124 -33 227 -114 292 -231 24 -42 41 -79 39 -81 -2 -2 -51 -9 -110
-16 l-106 -11 -45 50 c-62 69 -129 97 -214 90 -82 -6 -148 -40 -187 -96 -25
-36 -30 -54 -33 -117 -5 -97 14 -150 74 -202 104 -92 263 -85 367 16 42 41 67
108 67 183 0 26 3 50 8 52 4 3 46 8 94 12 l87 7 7 -28 c4 -16 13 -37 21 -46
31 -35 -12 -217 -72 -308 -16 -25 -52 -64 -80 -87 -129 -104 -289 -145 -447
-112 -132 27 -281 138 -333 246 -71 149 -72 267 -3 447 25 64 42 90 89 136 33
32 59 63 59 69 0 7 36 11 105 11 60 0 105 4 105 10 0 5 30 11 68 13 37 2 74 4
82 5 8 1 38 -4 66 -12z m462 -143 c-4 -57 15 -70 22 -16 l5 37 16 -24 c17 -28
51 -111 47 -115 -9 -8 -90 -46 -92 -43 -2 2 -9 25 -16 51 -7 26 -28 72 -46
102 l-33 55 50 0 50 0 -3 -47z m167 1 l57 -26 -48 -34 c-26 -19 -50 -34 -53
-34 -4 0 -17 20 -31 44 -20 37 -22 47 -11 60 17 21 19 21 86 -10z m-770 -91
c-3 -10 -13 -43 -22 -75 -11 -38 -23 -60 -38 -68 -25 -13 -45 -50 -45 -81 0
-31 27 -77 50 -84 24 -7 25 -18 6 -34 -8 -7 -17 -23 -20 -36 -8 -32 -14 -31
-60 7 -50 41 -76 98 -76 168 0 101 50 168 150 203 59 20 63 20 55 0z m112 -8
c42 -18 66 -38 95 -77 l19 -28 -38 -15 -39 -15 -2 -66 c-1 -56 -8 -77 -42
-140 -41 -74 -42 -74 -83 -74 -70 0 -76 12 -34 63 20 25 37 49 37 54 0 5 14
19 30 31 24 18 30 30 30 60 0 21 -7 48 -16 60 -14 21 -13 24 20 64 20 23 32
46 28 50 -5 5 -26 11 -48 14 -38 6 -39 6 -16 -11 l22 -16 -21 -30 c-11 -16
-30 -34 -41 -40 -19 -10 -20 -9 -13 23 4 18 14 50 22 71 17 42 33 46 90 22z
m603 -60 c0 -2 -18 -14 -40 -25 -48 -25 -52 -20 -7 9 31 20 47 26 47 16z
m-100 -54 c0 -6 -4 -13 -10 -16 -5 -3 -10 1 -10 9 0 9 5 16 10 16 6 0 10 -4
10 -9z m-360 -68 c0 -76 -10 -92 -44 -73 -36 19 -38 89 -3 113 39 28 47 22 47
-40z m-212 1 c14 -30 2 -59 -28 -69 -11 -3 -20 -13 -20 -21 0 -20 -24 -17 -44
5 -26 28 -18 82 14 98 40 20 65 16 78 -13z m191 -120 c5 -4 -69 -68 -96 -82
-29 -16 -29 -15 12 60 31 60 28 59 84 22z"/>
<path d="M1950 3572 c-50 -16 -75 -77 -47 -115 18 -26 81 -33 112 -13 27 18
34 61 15 96 -11 20 -58 39 -80 32z m54 -43 c29 -42 -12 -92 -58 -71 -28 13
-36 58 -14 80 19 19 55 14 72 -9z"/>
</g>
</svg>
