<?xml version="1.0" standalone="no"?>
<!DOCTYPE svg PUBLIC "-//W3C//DTD SVG 20010904//EN"
 "http://www.w3.org/TR/2001/REC-SVG-20010904/DTD/svg10.dtd">
<svg version="1.0" xmlns="http://www.w3.org/2000/svg"
 width="1024.000000pt" height="1024.000000pt" viewBox="0 0 1024.000000 1024.000000"
 preserveAspectRatio="xMidYMid meet">

<g transform="translate(0.000000,1024.000000) scale(0.100000,-0.100000)"
fill="#6F6F6F" stroke="none">
<path d="M4980 8324 c-381 -36 -661 -103 -998 -240 -562 -230 -1056 -675
-1389 -1254 -92 -160 -115 -233 -85 -270 21 -26 52 -22 52 6 0 28 132 275 209
389 161 240 318 422 480 558 113 95 269 213 356 269 299 193 748 357 1143 419
193 30 632 38 852 15 552 -58 1072 -258 1470 -565 303 -233 520 -465 718 -770
74 -113 155 -266 168 -315 7 -30 6 -29 38 -15 32 15 38 33 26 78 -26 98 -185
359 -318 522 -219 271 -523 546 -774 703 -447 279 -880 423 -1394 466 -109 9
-471 11 -554 4z"/>
<path d="M5010 8014 c-281 -24 -514 -74 -751 -159 -92 -33 -318 -129 -367
-157 -368 -203 -527 -334 -783 -639 -109 -130 -200 -256 -259 -355 -39 -66
-150 -289 -150 -301 0 -3 -18 -62 -40 -132 -21 -69 -59 -227 -82 -351 -42
-222 -43 -228 -43 -440 1 -118 4 -245 8 -281 l7 -66 -29 -6 c-23 -5 -36 -17
-53 -49 -30 -57 -28 -164 5 -313 14 -60 35 -189 47 -285 22 -189 66 -435 105
-595 13 -55 36 -154 51 -220 66 -299 200 -681 310 -884 20 -36 52 -95 72 -131
93 -172 236 -390 308 -469 l48 -54 71 6 c87 7 307 51 377 75 52 18 54 18 143
-5 100 -27 150 -25 202 7 35 21 55 72 47 118 -3 15 -18 45 -35 67 -274 368
-478 794 -712 1495 -81 241 -187 628 -187 682 0 17 8 29 25 36 14 7 27 12 29
12 1 0 3 -28 3 -62 2 -120 70 -364 202 -723 28 -77 88 -239 132 -360 181 -490
405 -931 546 -1072 39 -39 47 -43 93 -43 30 0 66 8 88 19 37 19 112 93 142
139 l15 24 68 -22 c122 -39 198 -5 252 113 43 94 55 156 55 281 0 180 -21 266
-145 601 -41 110 -99 270 -129 355 -31 85 -89 241 -129 346 -162 419 -240 540
-395 612 -49 23 -70 27 -148 27 -78 -1 -98 -5 -147 -28 -31 -16 -70 -42 -88
-58 -32 -30 -33 -30 -48 -11 -27 33 -62 45 -136 46 -77 1 -111 -13 -161 -62
-26 -27 -37 -30 -102 -34 -65 -3 -75 -7 -103 -34 -24 -24 -32 -43 -38 -89 -6
-40 -14 -61 -27 -69 -23 -13 -125 -56 -134 -56 -9 0 -30 207 -30 298 0 61 3
73 20 82 11 6 30 30 42 53 18 34 22 58 21 132 0 119 -29 301 -53 334 -18 24
-18 32 -5 106 82 490 259 887 516 1159 238 252 531 432 914 563 339 115 823
149 1210 83 124 -21 360 -84 473 -127 92 -34 282 -130 382 -193 318 -198 478
-359 645 -651 131 -229 191 -406 269 -790 24 -115 25 -130 12 -161 -19 -45
-44 -192 -52 -303 -6 -80 -4 -95 14 -132 12 -23 33 -50 47 -61 21 -17 25 -28
25 -73 0 -57 -16 -252 -25 -305 l-5 -31 -80 28 c-124 44 -136 52 -148 101 -26
98 -81 141 -185 142 -54 1 -62 4 -100 38 -81 75 -211 78 -273 5 l-28 -32 -46
46 c-57 57 -125 82 -221 81 -38 0 -90 -8 -118 -17 -98 -32 -203 -151 -287
-325 -29 -59 -77 -181 -180 -455 -36 -93 -78 -204 -94 -245 -16 -41 -52 -136
-80 -210 -28 -74 -66 -175 -85 -225 -48 -124 -74 -230 -88 -363 -9 -96 -9
-128 5 -205 37 -213 117 -317 243 -317 51 0 77 10 117 47 l26 25 7 -24 c15
-49 71 -122 114 -149 84 -54 111 -40 235 118 100 127 189 288 166 303 -26 17
-40 11 -58 -21 -60 -110 -213 -312 -220 -290 -7 21 7 56 47 119 38 58 39 63
26 89 -20 38 -20 40 20 97 33 49 60 132 46 140 -4 3 -17 -17 -30 -45 -13 -27
-39 -66 -57 -86 -33 -37 -34 -37 -49 -18 -9 11 -13 26 -9 35 4 8 11 29 17 45
5 17 32 79 59 138 160 353 363 871 435 1107 19 63 38 118 41 122 4 4 14 3 22
-2 13 -8 12 -19 -4 -92 -29 -131 -30 -142 -18 -134 13 8 45 76 72 151 9 28 36
91 59 141 23 51 51 134 64 185 l22 94 3 -100 c6 -205 -33 -428 -136 -775 -75
-253 -120 -366 -259 -651 -84 -172 -93 -199 -70 -199 36 0 64 49 219 380 89
189 304 702 334 795 118 370 134 431 134 512 l0 73 28 -12 c15 -7 31 -15 35
-18 15 -13 -127 -481 -224 -735 -180 -474 -410 -964 -552 -1175 -67 -100 -89
-129 -161 -219 -51 -63 -76 -104 -76 -120 0 -34 38 -99 73 -125 38 -28 135
-33 233 -11 60 13 85 15 118 6 103 -26 369 -73 446 -78 l85 -5 37 37 c42 42
184 249 275 400 208 346 378 788 498 1300 132 566 187 872 189 1050 1 97 -2
115 -22 153 -13 23 -34 48 -47 54 l-25 11 0 242 c0 248 -15 395 -44 440 -7 11
-16 47 -20 80 -73 604 -371 1120 -881 1527 -180 143 -509 327 -740 413 -207
77 -404 130 -595 160 -101 16 -576 29 -690 19z m554 -154 c92 -11 295 -49 401
-76 389 -100 853 -356 1156 -639 250 -233 445 -536 542 -840 61 -193 119 -525
91 -525 -5 0 -15 37 -22 83 -77 495 -258 871 -586 1214 -268 281 -742 551
-1161 663 -251 67 -401 84 -730 84 -241 -1 -289 -4 -440 -28 -432 -67 -742
-188 -1121 -438 -211 -139 -410 -329 -544 -518 -113 -160 -157 -240 -238 -435
-78 -187 -138 -405 -157 -567 -8 -68 -25 -77 -25 -15 0 203 153 661 295 882
101 158 127 196 171 250 112 135 284 298 425 402 214 156 527 311 799 394 139
43 395 98 510 109 116 11 534 11 634 0z m108 -179 c438 -68 889 -272 1254
-567 265 -214 474 -529 594 -894 90 -272 170 -649 170 -797 l0 -63 -30 0 c-23
0 -31 5 -35 23 -2 12 -21 112 -40 222 -42 233 -53 282 -102 430 -102 311 -271
577 -516 811 -259 246 -677 467 -1069 563 -228 56 -323 66 -648 66 -362 0
-512 -19 -762 -96 -388 -120 -719 -307 -972 -549 -164 -158 -344 -403 -423
-580 -36 -79 -80 -210 -108 -320 -49 -196 -111 -543 -99 -562 3 -4 -11 -8 -30
-8 l-36 0 0 93 c0 70 10 142 40 288 81 392 124 536 220 736 168 352 409 612
783 846 332 209 654 319 1082 371 176 22 546 15 727 -13z m2196 -2127 c3 -60
-20 -276 -34 -326 -13 -45 -18 -9 -13 79 4 54 7 142 8 195 1 103 7 131 25 125
6 -2 12 -33 14 -73z m-5168 59 c0 -5 7 -93 15 -197 8 -105 12 -192 9 -195 -18
-18 -41 124 -48 302 -3 77 -1 97 10 97 8 0 14 -3 14 -7z m250 -497 l0 -114
-34 -26 c-23 -17 -41 -44 -54 -78 -15 -40 -31 -62 -68 -90 -61 -47 -161 -101
-173 -94 -7 5 -36 174 -36 210 0 5 18 14 40 21 139 41 233 118 279 227 16 37
33 65 37 62 5 -3 9 -56 9 -118z m4634 71 c24 -63 84 -140 136 -176 49 -33 195
-85 210 -76 14 9 13 -9 -12 -117 -12 -54 -25 -98 -30 -98 -5 0 -47 18 -93 41
-96 46 -137 83 -171 156 -18 37 -33 54 -54 62 -29 10 -30 13 -30 69 0 80 11
182 20 182 4 0 15 -19 24 -43z m-3450 -452 c25 -19 35 -33 31 -44 -4 -9 -12
-40 -18 -69 -10 -46 -9 -58 6 -84 9 -16 17 -45 17 -63 0 -69 60 -263 188 -605
106 -281 245 -624 305 -749 l36 -73 17 58 c33 113 15 171 -294 979 -73 191
-124 354 -117 376 14 42 34 16 70 -88 20 -60 56 -157 80 -218 53 -133 94 -244
145 -390 21 -60 64 -182 95 -270 98 -278 118 -411 75 -495 -11 -22 -25 -77
-31 -123 -9 -73 -14 -85 -42 -110 l-32 -28 -28 33 c-139 164 -381 683 -569
1218 -22 63 -47 135 -56 160 -8 24 -22 74 -31 110 -11 44 -21 65 -31 65 -8 0
-16 -8 -18 -17 -2 -10 40 -147 93 -305 95 -285 208 -570 312 -793 76 -162 242
-465 279 -509 17 -20 33 -44 37 -53 12 -34 -13 -18 -54 35 -195 247 -432 742
-632 1323 -85 245 -114 358 -134 520 l-16 132 24 30 c13 17 26 31 29 31 3 1 6
-43 6 -97 2 -100 29 -232 50 -239 8 -3 11 32 10 115 -1 133 6 151 72 179 34
14 42 37 16 47 -18 7 -48 -7 -83 -38 l-24 -21 16 31 c39 76 130 94 201 39z
m2271 25 c31 -12 75 -57 75 -77 0 -11 -8 -10 -35 7 -44 27 -89 40 -105 30 -20
-13 -3 -29 66 -60 42 -19 67 -37 73 -52 8 -22 -1 -171 -14 -225 -8 -33 21 -30
38 5 19 36 37 144 37 217 0 41 -6 67 -21 92 -12 19 -18 37 -14 41 8 8 62 -53
75 -85 12 -28 -3 -206 -25 -299 -64 -276 -299 -867 -506 -1274 -67 -131 -230
-395 -269 -434 -27 -28 -36 -13 -12 21 76 108 320 570 407 773 135 314 323
844 311 875 -16 42 -36 1 -115 -233 -102 -304 -132 -380 -233 -602 -173 -377
-381 -752 -408 -735 -23 14 -62 112 -77 189 -26 137 -27 232 -4 329 19 82 123
378 253 722 33 88 77 210 98 270 64 188 80 225 97 225 29 0 9 -91 -60 -277
-36 -98 -123 -331 -192 -518 -70 -187 -134 -367 -142 -400 -17 -64 -14 -169 6
-219 l11 -28 39 73 c21 41 50 103 64 139 14 36 51 130 82 210 145 369 252 692
290 870 14 69 33 149 41 179 14 46 14 63 4 113 -12 56 -12 60 11 85 53 57 100
73 154 53z m-3511 -102 c14 -200 37 -386 72 -583 44 -246 54 -292 109 -480
129 -441 291 -828 439 -1052 30 -46 58 -87 61 -93 3 -5 -2 -10 -12 -10 -48 1
-266 392 -381 685 -109 277 -255 823 -322 1209 -25 139 -36 171 -67 196 -29
23 -72 25 -125 6 -37 -13 -38 -13 -38 9 0 12 -3 36 -6 52 -5 27 -3 31 38 46
23 10 81 39 128 66 47 27 88 50 91 50 3 1 9 -45 13 -101z m4819 54 c51 -26
111 -55 133 -64 l42 -16 -5 -48 c-7 -76 -8 -77 -50 -54 -59 31 -95 23 -121
-27 -11 -20 -55 -196 -132 -523 -108 -465 -306 -997 -470 -1265 -39 -63 -137
-205 -204 -294 -32 -43 -32 -53 -3 -87 32 -37 53 -27 107 51 25 36 70 99 100
140 67 91 167 269 227 407 108 247 125 288 157 383 59 173 142 456 170 575 44
190 86 421 86 470 0 25 7 56 16 68 28 41 85 21 87 -30 0 -24 -65 -345 -88
-433 -161 -611 -230 -815 -384 -1130 -92 -190 -195 -371 -294 -518 -65 -98
-55 -94 -152 -68 -22 6 -76 19 -119 28 -44 10 -81 23 -83 30 -2 6 14 22 37 34
44 25 136 132 195 228 163 263 238 420 370 768 55 144 138 417 174 574 24 101
62 397 87 662 9 103 19 187 21 187 2 0 45 -22 96 -48z m-4128 -179 c13 -72 47
-188 70 -234 12 -25 30 -73 40 -105 21 -74 65 -174 76 -174 13 0 11 40 -5 96
-21 73 -28 124 -18 124 17 0 31 -25 61 -115 16 -50 52 -151 79 -225 27 -74 64
-175 82 -224 62 -173 179 -453 254 -609 77 -159 84 -177 66 -177 -5 0 -10 -26
-12 -57 -2 -34 -8 -58 -15 -61 -7 -2 -36 32 -65 79 -31 48 -54 76 -56 67 -3
-16 45 -127 70 -160 10 -14 9 -20 -6 -37 -16 -18 -17 -23 -5 -39 55 -75 129
-189 129 -199 0 -7 -10 -13 -22 -13 -37 0 -193 229 -293 430 -60 119 -127 276
-171 402 -84 239 -225 751 -258 938 -18 106 -30 330 -16 330 5 0 12 -17 15
-37z m-825 -109 c6 -15 15 -65 20 -113 5 -47 27 -174 50 -281 142 -676 298
-1103 550 -1499 136 -214 190 -262 206 -181 4 17 10 32 14 35 11 6 108 -57
125 -83 18 -25 32 -19 -120 -45 -49 -9 -101 -18 -115 -22 -28 -7 -26 -9 -190
250 -235 372 -398 807 -544 1455 -19 85 -44 209 -55 275 -11 66 -23 134 -27
152 -5 26 -2 36 19 57 33 33 55 33 67 0z m4500 -61 c0 -36 -31 -174 -64 -287
-14 -48 -26 -93 -26 -99 0 -30 95 150 115 217 14 47 25 53 53 29 l21 -18 -19
-80 c-22 -91 -25 -125 -10 -125 14 0 27 36 51 135 31 125 41 155 56 155 19 0
17 -26 -16 -196 -96 -497 -321 -1069 -565 -1434 -97 -145 -266 -340 -295 -340
-24 0 -17 21 24 76 71 94 105 165 92 192 -5 12 -13 22 -17 22 -4 0 -26 -28
-48 -63 -50 -77 -161 -198 -207 -227 -27 -17 -38 -19 -55 -10 -29 15 -25 32
19 98 44 64 206 369 282 530 116 243 159 344 312 722 53 129 114 279 136 333
23 54 62 160 87 235 25 75 47 143 49 150 8 23 25 12 25 -15z m-4049 -25 c15
-60 56 -182 84 -253 13 -33 69 -184 123 -335 139 -383 188 -503 315 -777 79
-172 246 -491 304 -582 33 -52 34 -55 17 -68 -10 -7 -25 -13 -35 -13 -23 0
-161 148 -215 230 -40 62 -64 85 -64 62 0 -15 54 -109 90 -157 69 -90 77 -155
13 -93 -53 49 -161 199 -232 318 -242 409 -468 1040 -547 1528 -5 33 -4 33 28
30 31 -3 34 -7 71 -103 21 -55 44 -118 52 -140 22 -67 17 -8 -12 132 -27 130
-27 133 -8 147 18 13 18 15 2 30 -18 18 -24 86 -7 86 5 0 14 -19 21 -42z m-81
-8 c0 -32 -1 -33 -24 -24 -16 6 -22 35 -9 47 16 17 33 5 33 -23z m4220 1 c0
-17 -18 -31 -39 -31 -5 0 -6 11 -3 25 5 30 42 36 42 6z m-2600 -1625 c0 -35
-18 -42 -44 -17 -18 19 -19 23 -6 31 28 18 50 12 50 -14z m948 -4 c3 -17 -2
-22 -17 -22 -14 0 -21 6 -21 18 0 38 33 41 38 4z"/>
<path d="M4925 7565 c-297 -35 -597 -122 -837 -244 -214 -110 -351 -207 -438
-311 l-45 -54 50 35 c28 19 77 55 110 80 110 84 159 114 310 191 301 153 594
239 918 269 184 17 529 7 681 -20 407 -72 809 -245 1134 -488 40 -30 76 -52
79 -49 3 3 -25 34 -62 70 -112 107 -324 233 -595 353 -149 67 -446 143 -660
168 -142 18 -495 17 -645 0z"/>
<path d="M8547 6003 c-31 -96 -67 -231 -94 -343 -24 -104 -27 -134 -27 -310
-1 -107 1 -278 4 -380 l4 -185 -58 -205 c-93 -329 -131 -410 -256 -554 -36
-41 -66 -73 -67 -72 -1 1 27 60 63 131 71 143 108 266 163 545 51 264 51 285
-8 260 -17 -7 -34 -17 -38 -22 -3 -6 -21 -69 -39 -142 -54 -211 -88 -328 -163
-546 -83 -244 -133 -421 -129 -457 2 -14 12 -32 23 -39 18 -12 25 -11 52 4 42
23 108 103 166 201 27 45 72 108 101 139 59 65 93 108 161 207 27 39 69 95 95
125 32 36 70 104 115 200 71 153 192 378 226 420 l21 25 -6 -25 c-4 -14 -17
-79 -31 -145 -51 -250 -81 -308 -242 -466 -91 -88 -147 -153 -195 -224 -106
-159 -103 -186 9 -82 76 70 168 148 227 192 99 73 171 153 218 242 56 106 78
183 118 413 43 252 40 355 -15 400 -22 18 -47 -7 -70 -68 -23 -60 -80 -160
-166 -288 -73 -109 -142 -240 -189 -360 -31 -77 -69 -155 -70 -143 0 7 40 151
90 327 11 40 38 108 59 150 21 42 61 134 89 204 84 206 97 338 57 569 -21 122
-131 349 -170 349 -7 0 -20 -21 -28 -47z m77 -316 c24 -147 21 -274 -9 -390
-25 -94 -80 -256 -92 -267 -9 -8 6 382 18 464 10 72 60 298 65 293 2 -1 10
-46 18 -100z"/>
<path d="M1807 5943 c-77 -163 -82 -187 -81 -368 0 -217 19 -297 120 -510 61
-130 90 -203 140 -350 42 -122 77 -255 69 -263 -2 -2 -44 81 -95 185 -88 181
-136 270 -206 379 -18 29 -60 106 -94 173 -33 67 -68 125 -77 128 -11 4 -26
-4 -44 -24 -22 -25 -29 -45 -35 -99 -11 -109 2 -307 30 -425 58 -254 161 -406
388 -576 51 -39 124 -98 161 -132 38 -34 71 -60 74 -57 3 2 -1 22 -8 43 -19
58 -116 179 -233 289 -123 116 -184 202 -220 311 -30 89 -88 379 -74 365 16
-16 105 -175 228 -408 64 -121 143 -256 177 -300 33 -43 72 -99 88 -124 15
-25 63 -81 105 -125 44 -45 117 -139 167 -215 49 -74 101 -141 115 -148 38
-21 69 -11 92 27 17 30 18 39 8 75 -7 22 -30 107 -52 188 -22 81 -55 190 -74
241 -35 96 -66 208 -137 486 -22 85 -44 161 -50 168 -18 21 -47 15 -65 -13
-15 -22 -16 -33 -5 -92 31 -175 99 -433 153 -585 33 -93 57 -171 54 -174 -13
-14 -135 160 -175 250 -32 72 -101 283 -130 402 -11 44 -27 100 -36 125 -13
37 -16 92 -15 307 1 316 -12 414 -85 643 -13 41 -35 116 -50 165 -29 98 -48
135 -69 135 -7 0 -33 -44 -59 -97z m72 -294 c69 -200 82 -267 87 -454 5 -177
6 -176 -55 -10 -56 155 -69 206 -81 324 -10 106 -14 298 -5 289 3 -2 27 -69
54 -149z"/>
<path d="M1650 4293 c0 -16 18 -75 41 -133 102 -263 188 -371 364 -455 275
-131 336 -163 404 -212 58 -42 82 -53 105 -51 25 2 31 8 31 27 0 19 -18 37
-82 83 -45 32 -126 106 -182 166 -104 112 -147 142 -256 183 -119 44 -156 82
-269 277 -70 120 -156 183 -156 115z"/>
<path d="M8740 4274 c-22 -20 -65 -78 -94 -128 -85 -144 -130 -188 -255 -248
-99 -47 -115 -59 -236 -178 -71 -70 -156 -146 -187 -169 -82 -59 -99 -101 -42
-101 31 0 73 21 99 49 10 12 127 75 259 141 215 106 247 125 301 178 78 78
140 187 187 330 56 169 48 199 -32 126z"/>
<path d="M2165 3515 c-36 -35 -34 -93 3 -133 36 -38 169 -105 286 -143 50 -16
108 -41 128 -54 41 -28 83 -33 91 -11 7 18 -80 194 -102 205 -9 6 -69 31 -132
56 -63 26 -137 60 -165 76 -63 35 -78 36 -109 4z"/>
<path d="M8235 3521 c-22 -10 -87 -37 -145 -60 -179 -71 -196 -84 -252 -181
-27 -47 -47 -94 -46 -105 5 -32 42 -30 81 5 23 20 71 42 139 65 219 71 305
118 335 180 20 41 5 86 -33 104 -32 14 -31 14 -79 -8z"/>
<path d="M8700 3230 c-14 -4 -81 -24 -150 -43 -69 -19 -165 -47 -215 -61 -49
-14 -178 -48 -285 -76 -293 -77 -316 -85 -330 -121 -12 -27 -11 -33 8 -52 20
-19 25 -20 54 -8 33 13 341 97 718 196 113 29 217 58 232 64 40 15 50 40 31
79 -16 33 -22 36 -63 22z"/>
<path d="M1716 3206 c-8 -6 -18 -27 -21 -46 -6 -31 -3 -38 17 -48 28 -14 615
-161 868 -217 41 -10 85 -23 97 -31 30 -19 47 -18 66 4 41 45 6 95 -80 112
-89 19 -757 186 -850 213 -63 19 -86 22 -97 13z"/>
<path d="M2218 2598 c-27 -22 -30 -63 -7 -92 l20 -26 310 0 c193 0 318 4 329
10 33 18 42 46 26 78 -13 26 -22 30 -77 36 -118 12 -584 7 -601 -6z"/>
<path d="M7649 2604 c-46 -14 -48 -97 -3 -114 14 -6 145 -10 292 -10 289 0
309 4 326 53 8 23 6 31 -12 50 -22 22 -27 22 -305 24 -155 1 -289 -1 -298 -3z"/>
<path d="M27 103 c-25 -4 -27 -8 -27 -54 0 -48 1 -49 30 -49 30 0 30 1 30 55
0 30 -1 54 -2 54 -2 -1 -15 -4 -31 -6z"/>
</g>
</svg>
