<svg width="300" height="300" xmlns="http://www.w3.org/2000/svg">
 <g>
  <rect fill="none" id="canvas_background" height="302" width="302" y="-1" x="-1"/>
  <g display="none" overflow="visible" y="0" x="0" height="100%" width="100%" id="canvasGrid">
   <rect fill="url(#gridpattern)" stroke-width="0" y="1" x="1" height="400" width="583"/>
  </g>
 </g>
 <g>
  <g stroke="null" id="svg_7">
   <g stroke="null" id="svg_4" fill="#DA9E63" transform="matrix(0.08578825892467322,0,0,-0.08355724059230887,-3116.552020275267,-1644.2609129544062) ">
    <path stroke="null" id="svg_5" d="m37976.246912,-20325.210401c-149,-19 -271,-55 -404,-120c-165,-81 -266,-162 -361,-288c-146,-195 -205,-380 -205,-646c0,-271 57,-451 209,-662c182,-252 419,-396 731,-443c130,-20 214,-19 333,6c211,42 338,100 480,216c179,146 296,326 348,535c35,143 37,414 3,553c-3,15 4,25 26,37c29,16 30,16 41,-3c42,-80 52,-354 18,-522c-22,-113 -86,-298 -126,-367c-166,-286 -433,-477 -768,-546c-68,-14 -130,-19 -250,-18c-144,1 -169,3 -250,28c-223,68 -413,187 -566,356c-130,143 -185,231 -244,396c-52,143 -71,295 -57,445c19,193 62,349 137,501c35,70 41,88 29,92c-11,4 -25,-15 -50,-72c-20,-42 -42,-88 -49,-102c-23,-46 -64,-194 -81,-295c-12,-74 -15,-135 -11,-235c13,-321 109,-545 328,-768c153,-157 335,-270 533,-331c182,-56 430,-62 626,-14c91,22 245,91 342,154c109,69 128,85 226,193c70,76 94,111 142,211c98,202 140,385 140,605c0,92 -6,149 -22,215c-11,50 -23,107 -25,128c-5,40 -14,45 -33,23c-13,-16 -114,-41 -129,-32c-5,4 -26,-5 -47,-19c-20,-14 -41,-25 -46,-25c-12,0 -57,53 -52,62c3,4 48,30 102,58c127,66 151,85 134,102c-10,10 -16,10 -33,0c-12,-8 -22,-12 -23,-10c-2,2 -18,30 -36,63c-48,86 -174,247 -223,287c-134,106 -323,200 -462,229c-87,19 -304,32 -375,23zm404,-48c150,-39 306,-121 422,-221c65,-56 164,-184 216,-280l39,-74l-40,-20c-22,-12 -45,-21 -50,-21c-5,0 -37,44 -71,98c-61,98 -202,253 -217,239c-4,-4 25,-40 65,-80c40,-39 83,-88 97,-107c28,-38 95,-154 95,-165c0,-7 -80,-44 -97,-45c-6,0 -15,9 -18,20c-8,27 -105,154 -158,209c-84,87 -241,176 -374,212c-117,32 -225,24 -424,-34c-86,-25 -170,-52 -187,-61c-17,-9 -53,-16 -80,-16l-49,0l-6,-42c-3,-24 -4,-44 -2,-47c10,-9 35,23 35,45c0,18 6,24 21,24c21,0 21,-1 -5,-34c-17,-22 -26,-47 -26,-70l0,-35l-95,-3c-110,-3 -132,-23 -25,-23c39,0 70,-4 70,-8c0,-5 -14,-28 -30,-52c-42,-60 -115,-252 -136,-354c-40,-199 19,-435 145,-590c42,-50 157,-138 228,-175c132,-66 308,-101 434,-85c153,19 266,64 372,148c93,74 138,127 192,226c61,112 117,355 101,440c-6,28 -2,33 50,64c46,27 58,31 66,20c5,-8 7,-72 5,-144c-7,-239 -81,-429 -233,-599c-102,-114 -123,-133 -208,-190c-119,-79 -293,-136 -416,-136c-289,0 -553,154 -754,442c-64,92 -92,157 -115,275c-27,133 -26,249 4,406c5,23 3,37 -3,37c-20,0 -36,-116 -36,-260c-1,-172 21,-269 85,-389c82,-153 229,-308 376,-398c138,-85 250,-120 408,-129c106,-6 178,7 306,55c73,28 214,113 263,159c99,95 197,219 241,306c85,171 125,366 105,514c-6,45 -8,87 -5,93c4,5 33,23 66,39c43,22 61,27 64,18c3,-7 11,-70 19,-140c27,-230 -8,-441 -105,-630c-76,-150 -285,-352 -442,-428c-115,-55 -333,-110 -441,-110c-118,0 -235,17 -355,52c-156,46 -251,103 -400,244c-147,139 -265,333 -312,511c-41,160 -43,378 -4,553c19,84 104,269 159,345c51,71 182,200 243,241c122,81 326,160 473,184c30,5 123,7 205,5c120,-3 170,-8 249,-29zm-102,-251c115,-27 275,-116 364,-202c56,-54 183,-228 173,-237c-2,-2 -22,-13 -44,-25c-45,-24 -75,-27 -75,-8c0,31 -81,135 -146,188c-108,88 -226,141 -358,160c-42,5 -156,7 -283,3l-214,-7l3,-131l3,-131l28,-3c15,-2 27,-6 27,-9c0,-3 -23,-30 -51,-60c-94,-99 -144,-248 -137,-406c5,-92 8,-104 48,-183c52,-102 128,-176 236,-230c57,-29 90,-38 172,-47c88,-9 111,-9 177,7c227,53 368,203 397,420c10,75 14,86 32,86c10,0 28,7 38,17c17,15 18,14 18,-34c0,-65 -34,-191 -70,-263c-37,-73 -166,-206 -237,-243c-79,-42 -262,-80 -343,-72c-237,24 -392,127 -490,328c-47,94 -64,190 -57,307c8,132 51,239 144,362c42,55 52,78 34,78c-12,0 -102,-132 -135,-198c-84,-167 -87,-405 -6,-562c99,-194 272,-308 512,-336c100,-12 314,45 404,107c53,36 171,163 194,209c30,59 59,181 62,265l3,80l40,22c22,12 44,22 49,23c15,0 -1,-190 -24,-274c-42,-156 -125,-280 -260,-387c-82,-64 -117,-82 -227,-115c-262,-78 -582,17 -767,228c-111,127 -173,354 -146,537c24,166 118,382 195,449c28,25 35,39 35,68c0,27 5,37 20,41c11,3 17,10 14,15c-8,13 24,47 66,68c31,16 252,82 365,109c46,11 134,6 217,-14zm-312,-256l0,-119l-120,0l-120,0l0,115l0,114l99,3c54,2 108,4 120,5c20,2 21,-2 21,-118zm120,77l0,-44l78,-17c89,-20 260,-92 276,-117c17,-28 1,-31 -46,-7c-66,34 -230,78 -319,85l-79,7l0,68l0,69l45,0l45,0l0,-44zm210,12c153,-47 303,-157 356,-259l16,-32l-51,5c-45,5 -58,11 -109,60c-31,30 -86,71 -122,91c-72,40 -204,87 -245,87c-18,0 -28,7 -35,26c-21,53 -16,57 57,49c37,-4 97,-16 133,-27zm-212,-160c-2,-18 -6,-32 -10,-30c-5,1 -24,2 -43,2c-32,0 -35,2 -35,30c0,29 2,30 46,30c45,0 45,0 42,-32zm29,-15c-3,-10 -5,-4 -5,12c0,17 2,24 5,18c2,-7 2,-21 0,-30zm115,18c72,-19 146,-51 196,-88c22,-15 23,-15 29,5c3,12 8,22 11,22c17,0 105,-112 136,-173c34,-67 37,-78 34,-147c-3,-67 -5,-75 -23,-75c-15,0 -22,11 -31,50c-22,96 -119,240 -198,294c-49,34 -154,77 -206,86c-26,4 -36,10 -37,25c-2,24 -4,24 89,1zm-16,-55c124,-33 227,-114 292,-231c24,-42 41,-79 39,-81c-2,-2 -51,-9 -110,-16l-106,-11l-45,50c-62,69 -129,97 -214,90c-82,-6 -148,-40 -187,-96c-25,-36 -30,-54 -33,-117c-5,-97 14,-150 74,-202c104,-92 263,-85 367,16c42,41 67,108 67,183c0,26 3,50 8,52c4,3 46,8 94,12l87,7l7,-28c4,-16 13,-37 21,-46c31,-35 -12,-217 -72,-308c-16,-25 -52,-64 -80,-87c-129,-104 -289,-145 -447,-112c-132,27 -281,138 -333,246c-71,149 -72,267 -3,447c25,64 42,90 89,136c33,32 59,63 59,69c0,7 36,11 105,11c60,0 105,4 105,10c0,5 30,11 68,13c37,2 74,4 82,5c8,1 38,-4 66,-12zm462,-143c-4,-57 15,-70 22,-16l5,37l16,-24c17,-28 51,-111 47,-115c-9,-8 -90,-46 -92,-43c-2,2 -9,25 -16,51c-7,26 -28,72 -46,102l-33,55l50,0l50,0l-3,-47zm167,1l57,-26l-48,-34c-26,-19 -50,-34 -53,-34c-4,0 -17,20 -31,44c-20,37 -22,47 -11,60c17,21 19,21 86,-10zm-770,-91c-3,-10 -13,-43 -22,-75c-11,-38 -23,-60 -38,-68c-25,-13 -45,-50 -45,-81c0,-31 27,-77 50,-84c24,-7 25,-18 6,-34c-8,-7 -17,-23 -20,-36c-8,-32 -14,-31 -60,7c-50,41 -76,98 -76,168c0,101 50,168 150,203c59,20 63,20 55,0zm112,-8c42,-18 66,-38 95,-77l19,-28l-38,-15l-39,-15l-2,-66c-1,-56 -8,-77 -42,-140c-41,-74 -42,-74 -83,-74c-70,0 -76,12 -34,63c20,25 37,49 37,54c0,5 14,19 30,31c24,18 30,30 30,60c0,21 -7,48 -16,60c-14,21 -13,24 20,64c20,23 32,46 28,50c-5,5 -26,11 -48,14c-38,6 -39,6 -16,-11l22,-16l-21,-30c-11,-16 -30,-34 -41,-40c-19,-10 -20,-9 -13,23c4,18 14,50 22,71c17,42 33,46 90,22zm603,-60c0,-2 -18,-14 -40,-25c-48,-25 -52,-20 -7,9c31,20 47,26 47,16zm-100,-54c0,-6 -4,-13 -10,-16c-5,-3 -10,1 -10,9c0,9 5,16 10,16c6,0 10,-4 10,-9zm-360,-68c0,-76 -10,-92 -44,-73c-36,19 -38,89 -3,113c39,28 47,22 47,-40zm-212,1c14,-30 2,-59 -28,-69c-11,-3 -20,-13 -20,-21c0,-20 -24,-17 -44,5c-26,28 -18,82 14,98c40,20 65,16 78,-13zm191,-120c5,-4 -69,-68 -96,-82c-29,-16 -29,-15 12,60c31,60 28,59 84,22z"/>
    <path stroke="null" id="svg_6" d="m37826.246912,-20817.210401c-50,-16 -75,-77 -47,-115c18,-26 81,-33 112,-13c27,18 34,61 15,96c-11,20 -58,39 -80,32zm54,-43c29,-42 -12,-92 -58,-71c-28,13 -36,58 -14,80c19,19 55,14 72,-9z"/>
   </g>
  </g>
 </g>
</svg>