<?xml version="1.0" standalone="no"?>
<!DOCTYPE svg PUBLIC "-//W3C//DTD SVG 20010904//EN"
 "http://www.w3.org/TR/2001/REC-SVG-20010904/DTD/svg10.dtd">
<svg version="1.0" xmlns="http://www.w3.org/2000/svg"
 width="1024.000000pt" height="1024.000000pt" viewBox="0 0 1024.000000 1024.000000"
 preserveAspectRatio="xMidYMid meet">

<g transform="translate(0.000000,1024.000000) scale(0.100000,-0.100000)"
fill="#6F6F6F" stroke="none">
<path d="M4005 7980 c-177 -27 -344 -85 -500 -172 -109 -61 -310 -216 -396
-304 -299 -309 -457 -719 -435 -1131 15 -279 77 -503 198 -708 69 -118 202
-287 292 -373 47 -44 86 -84 86 -88 0 -4 -31 -4 -68 -1 -38 3 -87 3 -109 0
-38 -5 -41 -8 -45 -40 l-4 -35 70 6 c80 6 1047 9 2234 7 l792 -1 0 -100 c0
-78 3 -100 14 -100 17 0 26 44 26 131 l0 69 470 0 c392 0 470 -2 470 -14 0 -7
3 -27 6 -42 5 -27 2 -30 -28 -39 -40 -12 -50 -47 -19 -67 26 -16 29 -53 4 -44
-16 7 -141 -9 -477 -61 -126 -19 -171 -23 -174 -14 -6 17 -57 41 -90 41 -16 0
-49 -7 -72 -15 -56 -20 -70 -19 -70 5 0 15 -7 20 -27 20 -35 0 -105 -32 -132
-59 -17 -17 -25 -18 -53 -10 -82 24 -362 75 -547 100 -232 31 -685 45 -974 31
-762 -38 -1350 -204 -1499 -424 -15 -21 -32 -64 -38 -95 -11 -53 -10 -58 20
-119 43 -88 117 -151 255 -219 61 -30 135 -63 165 -75 65 -25 368 -102 490
-124 355 -65 1065 -84 1606 -41 304 23 733 110 911 184 157 64 284 181 252
232 -6 10 -10 7 -17 -12 -48 -124 -294 -230 -732 -313 -293 -56 -538 -78 -948
-83 -538 -8 -938 27 -1252 108 -467 121 -672 243 -705 420 -35 185 347 368
970 463 337 52 430 59 805 60 334 0 466 -7 670 -35 182 -25 511 -92 572 -116
36 -14 37 -16 32 -56 -8 -64 28 -128 82 -146 39 -14 51 -13 200 22 156 35 435
89 524 101 l45 5 27 -57 c32 -68 152 -202 202 -226 20 -9 46 -14 59 -11 22 6
25 2 30 -32 4 -21 7 -84 7 -140 0 -57 4 -105 10 -108 16 -10 11 -25 -9 -25
-24 0 -43 -23 -35 -44 3 -9 9 -17 13 -17 3 -1 201 -3 439 -4 464 -2 451 -3
417 48 -8 13 -26 79 -40 148 -14 68 -30 138 -36 156 -23 72 -119 111 -139 57
-16 -41 -13 -44 44 -44 30 0 57 -4 60 -8 10 -17 35 -158 42 -236 6 -73 6 -79
-10 -73 -10 4 -173 7 -362 7 -301 0 -344 2 -344 15 0 13 39 15 326 11 298 -5
325 -4 322 12 -3 18 4 17 -215 20 l-153 2 0 69 0 68 48 0 c26 0 83 0 127 1
l80 2 -3 162 c-1 90 -3 232 -5 316 -1 83 1 152 4 152 20 0 101 -151 224 -415
18 -38 56 -118 84 -178 28 -59 51 -109 51 -111 0 -2 31 -68 69 -148 38 -79 92
-193 119 -254 132 -288 194 -420 203 -428 5 -6 9 -14 9 -18 0 -4 -1480 -8
-3290 -8 -2625 0 -3290 3 -3290 13 0 6 31 68 68 137 38 69 125 229 194 355
122 225 312 545 389 655 79 113 171 235 179 238 14 5 -1 32 -17 32 -9 0 -31
-16 -50 -36 -88 -94 -332 -453 -440 -649 -33 -60 -109 -198 -169 -305 -59
-107 -127 -238 -151 -290 -25 -52 -51 -107 -59 -122 -19 -35 -18 -44 10 -81
34 -45 46 -98 46 -205 0 -91 0 -93 27 -103 15 -6 83 -9 153 -7 l127 3 -1 -42
c-1 -34 5 -48 27 -70 l28 -28 182 3 c180 3 182 3 209 29 15 14 33 44 40 67
l13 41 2513 1 2512 0 0 -28 c0 -45 26 -97 52 -103 13 -3 99 -4 192 -3 169 3
169 3 188 29 11 14 22 44 25 67 l5 40 129 -1 c119 -2 130 0 150 19 18 19 20
26 11 55 -6 19 -14 78 -18 131 -6 90 -5 98 12 104 66 24 65 55 -9 219 -27 60
-68 155 -92 210 -24 55 -68 152 -98 215 -30 63 -68 144 -84 180 -69 149 -102
217 -216 450 -118 242 -167 346 -167 355 0 3 8 5 19 5 20 0 31 26 31 77 0 26
-14 48 -66 109 l-67 76 -131 -3 c-72 -1 -429 -2 -794 -1 -583 2 -666 4 -687
18 -21 14 -26 14 -54 -1 -28 -14 -167 -15 -1407 -13 l-1376 2 -82 71 c-45 40
-114 107 -153 150 -80 88 -203 284 -259 414 -170 393 -156 859 37 1238 119
233 322 460 539 603 315 207 580 291 925 293 127 0 170 -4 279 -27 297 -63
547 -192 803 -413 58 -50 83 -64 83 -44 0 13 -115 118 -200 183 -132 100 -370
216 -525 256 -199 52 -276 62 -462 61 -119 0 -218 -7 -298 -19z m3522 -2886
l-2 -65 -87 -2 -88 -3 0 57 0 56 61 7 c33 4 70 11 82 15 12 5 25 7 29 4 5 -2
7 -33 5 -69z m-235 -14 l3 -60 -31 0 c-17 0 -52 -3 -78 -6 l-46 -7 0 61 0 61
53 4 c28 2 62 4 74 5 19 2 22 -4 25 -58z m478 11 c26 -27 42 -47 35 -45 -6 3
-45 -2 -86 -11 -41 -8 -77 -15 -81 -15 -3 0 -10 15 -13 33 -4 17 -14 44 -21
60 l-15 27 67 0 67 0 47 -49z m-229 -182 c-9 -9 -368 -76 -501 -94 -131 -17
-206 -29 -613 -102 -117 -20 -153 -23 -173 -15 -30 15 -30 23 2 61 40 48 59
55 94 35 28 -17 36 -17 177 5 81 13 254 38 383 56 410 58 595 87 610 95 11 5
17 1 21 -14 3 -11 3 -24 0 -27z m39 -101 c0 -18 3 -113 7 -210 3 -104 2 -178
-3 -178 -5 0 -18 -3 -30 -6 -18 -5 -20 -1 -20 33 0 21 -3 83 -5 138 -5 100 -5
100 -32 100 -14 1 -28 3 -30 5 -2 3 -7 32 -10 66 l-6 61 57 10 c31 6 60 11 65
12 4 0 7 -14 7 -31z m-226 -44 c3 -9 6 -36 6 -60 l0 -44 -70 0 -70 0 0 54 0
55 53 4 c28 2 57 4 63 5 7 1 15 -5 18 -14z m-174 -54 l0 -50 -97 0 c-103 0
-136 10 -160 46 -13 21 -12 21 89 36 57 9 118 16 136 17 l32 1 0 -50z m0 -104
c0 -42 -10 -56 -42 -56 -35 0 -81 20 -123 55 l-30 24 98 1 c96 0 97 0 97 -24z
m268 14 c29 0 32 -3 32 -30 l0 -30 -124 0 c-132 0 -136 2 -136 52 0 20 4 21
98 15 53 -4 112 -7 130 -7z m-88 -331 l0 -129 -56 0 c-93 0 -94 2 -94 138 l0
118 75 1 75 1 0 -129z m1114 -1001 c3 -29 6 -84 6 -123 l0 -70 -3133 1 c-1722
1 -3184 2 -3248 3 l-116 1 -6 58 c-3 31 -13 81 -23 110 -15 46 -16 55 -3 63 8
5 1346 9 3265 9 l3251 0 7 -52z m-5766 -253 c2 -1 -4 -20 -13 -42 l-16 -40
-193 -1 -194 -1 -6 27 c-3 15 -8 37 -12 50 l-6 22 218 -6 c121 -4 220 -8 222
-9z m5476 -30 c-3 -22 -7 -41 -8 -41 0 -1 -79 -4 -174 -6 l-173 -4 -20 37
c-10 21 -19 43 -19 50 0 8 53 10 200 8 l201 -4 -7 -40z"/>
<path d="M5575 7099 c-4 -5 4 -27 17 -47 37 -58 85 -169 111 -262 42 -147 58
-264 64 -482 3 -115 9 -208 13 -208 15 0 21 188 10 310 -13 152 -52 349 -90
450 -29 78 -108 250 -115 250 -2 0 -7 -5 -10 -11z"/>
<path d="M3482 6798 c-91 -139 -125 -253 -124 -420 2 -152 31 -348 53 -348 12
0 11 10 -6 109 -43 241 -9 451 101 632 33 54 43 89 26 89 -5 0 -27 -28 -50
-62z"/>
<path d="M3660 6823 c0 -5 -18 -34 -41 -64 -63 -84 -97 -177 -113 -302 -10
-81 15 -51 39 48 29 117 65 195 116 250 23 25 40 47 38 48 -2 1 -12 9 -21 16
-10 7 -18 9 -18 4z"/>
<path d="M3672 6568 c-45 -56 -58 -292 -21 -400 34 -99 100 -218 121 -218 34
0 32 29 -5 83 -54 78 -85 153 -98 237 -11 72 -6 190 10 234 24 64 20 97 -7 64z"/>
<path d="M3502 6199 c1 -12 9 -24 16 -27 9 -3 13 3 10 19 -1 12 -9 24 -16 27
-9 3 -13 -3 -10 -19z"/>
<path d="M4440 4765 c-333 -46 -492 -111 -545 -221 -37 -79 7 -138 144 -194
197 -78 382 -105 736 -104 294 0 429 13 611 59 220 56 334 148 290 233 -54
105 -266 192 -556 228 -144 18 -548 17 -680 -1z m654 -40 c241 -28 403 -82
481 -160 130 -131 -101 -236 -605 -276 -404 -32 -895 46 -1010 161 -30 30 -26
77 9 109 91 85 265 139 566 174 88 11 443 5 559 -8z"/>
<path d="M4700 4567 c0 -99 13 -136 43 -124 15 5 16 19 11 99 -7 113 -8 118
-34 118 -19 0 -20 -6 -20 -93z"/>
<path d="M2638 4423 c-70 -80 -60 -183 29 -304 129 -174 351 -294 725 -393
206 -54 527 -102 848 -127 195 -15 845 -15 1050 0 537 40 1035 150 1303 288
65 34 110 67 167 122 79 77 108 122 141 220 24 68 24 94 -1 156 l-19 50 -1
-61 c0 -34 -7 -78 -15 -98 -23 -54 -137 -169 -215 -216 -277 -167 -794 -288
-1393 -325 -784 -48 -1557 24 -2056 191 -268 89 -545 284 -566 398 -4 18 0 50
8 74 17 47 16 49 -5 25z"/>
<path d="M3714 4229 c-9 -15 2 -23 81 -54 150 -59 368 -102 632 -126 186 -16
761 -7 912 15 251 36 501 94 501 117 0 21 -34 20 -123 -5 -111 -31 -318 -71
-442 -86 -149 -18 -642 -24 -810 -11 -278 23 -496 67 -666 135 -75 30 -75 30
-85 15z"/>
<path d="M7575 3871 c-11 -23 -13 -47 -8 -105 l6 -76 -49 -1 c-87 -1 -129 -12
-131 -34 -2 -11 -6 -59 -9 -106 -7 -83 -6 -87 17 -102 13 -10 39 -17 57 -17
l34 0 -4 75 c-3 72 -3 75 19 75 18 0 23 -6 24 -27 1 -16 2 -47 3 -70 0 -24 6
-43 11 -43 6 0 9 29 9 70 -1 61 1 70 17 70 24 0 29 -10 36 -69 3 -27 9 -54 13
-60 8 -14 77 -18 91 -4 5 5 14 41 19 79 19 131 10 164 -45 164 l-35 0 0 93 c0
59 -4 97 -12 105 -21 21 -47 13 -63 -17z m119 -237 c39 -15 5 -19 -136 -14
-129 3 -142 5 -83 10 101 9 201 11 219 4z"/>
<path d="M7899 3841 c-38 -38 -39 -40 -39 -112 0 -112 30 -151 87 -114 24 16
25 21 20 73 -5 42 -2 63 11 84 20 34 45 38 37 5 -3 -12 -7 -54 -8 -93 -3 -91
7 -104 78 -104 l53 0 4 73 c2 39 0 80 -4 90 -13 26 -62 22 -76 -5 -9 -19 -11
-13 -11 38 -1 50 -5 64 -24 82 -37 35 -82 29 -128 -17z"/>
<path d="M7274 3845 c-39 -16 -44 -30 -44 -113 0 -85 15 -116 57 -120 40 -4
69 33 60 78 -4 19 -1 34 8 44 18 18 19 65 2 87 -23 30 -50 38 -83 24z"/>
<path d="M7080 3761 l0 -70 -32 -3 c-32 -3 -33 -4 -33 -53 0 -49 1 -50 32 -53
49 -5 63 24 63 129 0 48 -3 94 -6 103 -14 35 -24 12 -24 -53z"/>
<path d="M11 102 c-6 -2 -11 -26 -11 -53 0 -48 1 -49 30 -49 30 0 30 1 30 53
0 53 -9 62 -49 49z"/>
</g>
</svg>
