<?xml version="1.0" standalone="no"?>
<!DOCTYPE svg PUBLIC "-//W3C//DTD SVG 20010904//EN"
 "http://www.w3.org/TR/2001/REC-SVG-20010904/DTD/svg10.dtd">
<svg version="1.0" xmlns="http://www.w3.org/2000/svg"
 width="1024.000000pt" height="1024.000000pt" viewBox="0 0 1024.000000 1024.000000"
 preserveAspectRatio="xMidYMid meet">

<g transform="translate(0.000000,1024.000000) scale(0.100000,-0.100000)"
fill="#6F6F6F" stroke="none">
<path d="M5050 8703 c-242 -13 -564 -65 -667 -108 -35 -15 -38 -21 -24 -43 7
-11 20 -10 75 7 84 26 316 67 464 82 71 7 197 9 335 6 237 -6 379 -23 595 -73
93 -21 125 -25 134 -16 16 16 10 20 -69 47 -94 33 -395 83 -567 95 -137 9
-158 10 -276 3z"/>
<path d="M3590 8198 c-132 -78 -193 -120 -307 -212 -143 -115 -254 -227 -358
-361 -38 -49 -98 -125 -133 -169 -62 -77 -133 -181 -204 -301 -147 -248 -263
-594 -295 -879 -33 -308 -15 -960 42 -1461 14 -121 25 -237 25 -257 l0 -38
-72 0 c-40 0 -110 -6 -154 -14 l-81 -13 -8 116 c-11 168 -6 1265 6 1401 11
123 46 319 79 449 24 96 24 88 0 94 -17 4 -23 -5 -44 -76 -30 -99 -71 -307
-87 -437 -8 -62 -12 -304 -13 -700 -1 -651 2 -787 15 -796 5 -3 9 0 9 7 0 7 3
9 6 6 4 -4 2 -13 -5 -20 -8 -11 -7 -22 6 -48 12 -23 17 -54 16 -99 -2 -36 4
-135 12 -220 8 -85 17 -203 21 -262 6 -96 9 -108 25 -108 17 0 19 9 19 80 0
44 -9 169 -20 278 -11 108 -21 210 -22 227 -3 29 -2 30 62 42 71 13 161 16
207 7 l30 -6 16 -191 17 -192 -32 -25 c-54 -41 -98 -92 -124 -142 -27 -54 -30
-78 -10 -78 8 0 20 -2 28 -5 7 -3 23 12 37 35 14 22 44 58 68 82 l43 42 0 -29
c0 -42 45 -346 74 -500 14 -71 34 -191 45 -265 20 -130 23 -140 92 -277 67
-135 122 -223 138 -223 4 0 15 6 25 13 17 12 15 19 -25 117 -23 58 -50 128
-59 155 -12 36 -23 51 -38 53 -24 4 -25 8 -52 202 -12 85 -34 234 -50 330 -17
96 -37 243 -45 325 -9 83 -22 211 -30 285 -8 74 -18 170 -21 213 l-7 77 29 0
c52 0 54 -5 69 -196 20 -245 50 -464 79 -570 34 -130 132 -454 171 -569 18
-55 52 -167 75 -250 59 -209 85 -260 195 -369 98 -99 177 -152 258 -173 75
-19 528 -18 684 2 117 16 121 15 176 -5 101 -38 194 -139 237 -258 20 -54 22
-75 17 -160 -11 -203 -110 -357 -280 -437 -96 -46 -176 -65 -267 -65 -95 0
-172 20 -280 72 l-84 42 54 17 c30 10 74 23 98 29 50 13 78 50 88 116 10 67
-44 145 -134 192 -55 28 -288 115 -593 221 -184 64 -422 172 -536 244 -218
139 -486 396 -673 647 -156 209 -170 229 -228 346 -152 299 -170 541 -57 764
60 118 210 240 368 298 l72 27 -10 46 -10 46 -89 -33 c-261 -97 -435 -282
-482 -514 -31 -156 -9 -361 60 -544 74 -197 273 -488 514 -755 82 -90 273
-263 375 -337 147 -109 485 -277 605 -302 31 -7 37 -13 49 -54 29 -102 138
-264 242 -360 138 -128 305 -225 467 -274 218 -64 480 -10 632 131 62 57 127
157 159 245 104 279 -1 548 -262 671 -44 21 -75 39 -69 39 18 0 93 82 120 130
52 91 65 168 71 400 7 254 -4 376 -52 625 -20 99 -47 265 -60 370 -27 207 -71
391 -136 568 -55 149 -89 215 -99 196 -12 -21 -4 -89 13 -124 9 -16 31 -81 50
-143 18 -61 37 -109 42 -105 4 5 5 0 2 -10 -4 -11 -1 -33 7 -50 12 -28 24 -86
56 -272 5 -27 19 -128 31 -222 13 -95 26 -168 29 -163 9 14 30 -104 29 -160 0
-25 5 -93 11 -152 6 -60 11 -208 12 -330 2 -236 -4 -285 -53 -380 -27 -54
-125 -146 -184 -174 -46 -22 -63 -24 -205 -24 -85 0 -193 3 -239 7 l-84 6 -18
41 c-25 57 -104 389 -123 521 -10 61 -44 230 -76 376 -32 146 -70 337 -84 425
-14 87 -32 193 -40 234 -8 41 -20 138 -26 215 -17 227 -46 456 -70 558 -17 73
-12 123 14 153 21 26 25 27 53 15 30 -12 30 -13 37 -114 33 -516 167 -1070
438 -1822 44 -121 89 -236 100 -256 11 -20 39 -47 62 -60 56 -32 187 -33 258
-2 59 27 74 51 95 149 27 126 24 476 -5 669 -22 141 -108 570 -118 586 -5 9
-59 244 -99 429 -44 207 -128 411 -195 475 -52 49 -234 56 -363 14 l-57 -19
-29 21 c-41 30 -146 38 -206 15 -45 -18 -95 -66 -95 -92 0 -9 -10 -14 -27 -14
-58 -1 -166 -66 -270 -164 l-53 -49 0 29 c0 16 -7 126 -15 244 -23 319 -30
724 -16 850 24 212 83 438 183 700 53 139 181 377 290 538 79 118 221 277 342
385 116 103 196 157 383 256 278 149 563 249 838 295 281 48 478 56 727 30
405 -41 673 -116 987 -273 132 -67 265 -145 331 -194 83 -62 274 -252 344
-342 237 -305 392 -621 490 -1005 25 -96 55 -209 66 -250 48 -174 53 -279 41
-740 -6 -234 -14 -451 -17 -482 l-6 -58 -61 53 c-91 78 -162 126 -247 165 -41
19 -102 58 -135 86 l-59 51 -86 0 c-78 0 -91 -3 -128 -28 -42 -27 -43 -27 -89
-12 -63 22 -198 38 -253 31 -90 -12 -159 -88 -263 -286 -135 -257 -290 -726
-337 -1020 -52 -329 -63 -442 -64 -670 -1 -253 7 -304 56 -345 37 -32 87 -45
169 -45 75 0 123 13 158 44 51 45 149 219 261 465 154 338 356 1003 422 1386
16 95 19 144 14 235 -6 114 -5 115 19 133 34 24 73 18 98 -15 l20 -27 -28
-173 c-15 -95 -40 -243 -55 -328 -16 -85 -34 -193 -40 -240 -59 -435 -266
-1165 -457 -1610 l-58 -135 -185 0 c-179 1 -187 2 -242 27 -105 48 -198 166
-244 305 -29 87 -29 90 -29 323 1 210 4 252 28 390 56 317 158 709 194 746 14
14 14 17 0 31 -13 13 -19 14 -31 4 -22 -19 -58 -120 -51 -145 5 -15 4 -17 -3
-7 -8 10 -11 6 -17 -17 -3 -18 -4 -36 -1 -41 4 -5 2 -11 -3 -13 -6 -1 -11 -22
-12 -45 -2 -23 -7 -39 -11 -37 -5 3 -6 14 -3 25 4 10 4 19 1 19 -7 0 -21 -53
-46 -164 -19 -88 -20 -122 -1 -75 6 14 10 17 10 8 1 -8 -6 -24 -14 -35 -8 -10
-14 -23 -15 -29 0 -5 5 -3 11 5 8 11 9 4 3 -25 -4 -22 -7 -51 -7 -64 1 -19 -1
-21 -9 -10 -7 10 -8 5 -4 -18 3 -18 1 -35 -5 -38 -5 -4 -9 -3 -8 2 3 17 -1 76
-5 72 -6 -6 -46 -252 -46 -283 0 -15 4 -25 9 -22 5 4 6 -7 1 -26 -26 -99 -31
-154 -27 -288 3 -92 10 -169 21 -210 47 -177 164 -329 309 -400 100 -49 173
-58 487 -62 208 -3 217 -2 268 21 119 54 286 289 481 680 206 409 357 889 422
1337 23 165 39 572 39 1045 0 380 -5 437 -54 616 -13 48 -42 162 -64 253 -87
361 -275 746 -499 1018 -237 288 -397 419 -688 565 -348 173 -647 255 -1095
298 -297 28 -695 -17 -1035 -118 -417 -124 -835 -362 -1056 -601 -334 -360
-601 -886 -688 -1352 -52 -277 -55 -354 -37 -795 15 -358 32 -624 41 -633 2
-2 -8 -20 -21 -39 -13 -20 -24 -44 -24 -54 0 -29 -48 -26 -54 4 -9 42 -46 462
-56 627 -17 283 -24 933 -11 1049 38 344 154 689 316 937 149 229 347 475 506
629 126 122 182 167 341 274 59 40 110 76 113 81 6 9 -25 81 -34 79 -3 0 -22
-10 -41 -21z m103 -3311 c74 -125 135 -320 236 -752 95 -406 138 -660 157
-920 7 -109 -19 -372 -40 -393 -33 -33 -173 -43 -202 -14 -41 41 -105 199
-246 607 -192 561 -349 1385 -278 1470 24 28 101 44 227 44 l121 1 25 -43z
m2920 37 c13 -5 12 -13 -9 -54 -24 -47 -33 -79 -14 -50 9 13 10 13 10 0 0 -13
1 -13 11 0 8 12 10 12 7 1 -2 -8 -12 -15 -22 -17 -23 -3 -19 5 -51 -93 -24
-76 -26 -86 -11 -96 12 -9 14 -19 7 -42 -12 -40 -31 -76 -38 -69 -10 10 -35
-24 -29 -40 3 -9 2 -12 -5 -9 -6 4 -8 -3 -4 -22 5 -20 4 -24 -3 -14 -8 11 -12
5 -18 -25 -4 -21 -7 -47 -6 -58 0 -10 -6 -25 -14 -33 -7 -8 -14 -22 -13 -31 0
-14 2 -13 9 3 5 13 9 14 9 5 0 -23 -17 -59 -19 -40 -1 8 -10 -13 -20 -48 -10
-35 -16 -71 -13 -79 4 -10 2 -14 -5 -10 -7 5 -13 -12 -17 -48 -4 -30 -12 -58
-17 -61 -5 -3 -6 -20 -3 -37 5 -25 4 -29 -5 -17 -8 11 -9 6 -4 -21 3 -22 2
-39 -5 -43 -7 -5 -8 -1 -4 11 4 12 3 15 -5 8 -20 -19 -35 -142 -19 -162 6 -9
6 -13 -1 -13 -7 0 -11 -25 -10 -67 1 -58 2 -63 9 -33 4 19 5 46 3 60 -4 17 -3
21 4 12 6 -10 13 5 21 50 33 172 134 528 251 888 37 113 73 226 80 252 l14 47
46 -6 c98 -13 124 -26 139 -68 26 -70 18 -229 -18 -400 -72 -336 -110 -473
-229 -820 -91 -267 -138 -380 -249 -596 -101 -198 -126 -232 -187 -249 -80
-22 -156 16 -176 88 -25 92 1 522 51 811 35 206 131 532 229 776 45 112 133
285 196 383 52 80 55 82 93 82 22 0 46 -3 54 -6z m688 -125 c89 -44 297 -240
300 -282 6 -80 -59 -473 -112 -667 -86 -321 -195 -594 -352 -890 -223 -418
-342 -553 -498 -567 -32 -3 -59 -3 -59 0 0 3 13 36 29 74 62 145 197 531 265
756 80 263 175 699 211 967 19 140 71 442 90 528 8 34 22 74 31 87 18 28 30
27 95 -6z m-4329 9 c32 -26 70 -241 98 -556 21 -236 32 -329 51 -410 5 -26 17
-85 25 -132 8 -47 37 -186 64 -310 27 -124 59 -279 71 -345 35 -200 77 -403
109 -530 16 -66 30 -124 30 -129 0 -12 -66 2 -125 29 -67 29 -183 138 -235
221 -31 49 -52 105 -90 238 -27 95 -54 186 -60 202 -30 77 -190 619 -204 689
-9 44 -22 136 -29 204 l-13 124 115 -6 c64 -3 140 -13 170 -22 62 -19 81 -15
81 20 0 14 -1 25 -2 25 -2 0 -38 7 -80 15 -42 8 -124 15 -182 16 l-105 1 -5
52 c-11 112 -16 348 -7 364 13 25 226 213 264 235 38 20 39 20 59 5z m3605
-100 c-3 -8 -6 -5 -6 6 -1 11 2 17 5 13 3 -3 4 -12 1 -19z m-2533 -70 c-10
-16 -20 -7 -22 19 -2 26 -1 26 12 8 8 -11 12 -23 10 -27z m2508 -4 c-8 -15
-10 -15 -15 0 -4 11 -3 15 4 10 8 -4 9 1 5 17 -6 20 -5 21 4 7 7 -11 8 -24 2
-34z m-49 -164 c-3 -11 -7 -20 -9 -20 -2 0 -4 9 -4 20 0 11 4 20 9 20 5 0 7
-9 4 -20z m-543 -285 c-7 -9 -15 -13 -17 -11 -6 6 20 36 26 30 2 -2 -2 -10 -9
-19z m-1763 -177 c-3 -8 -6 -5 -6 6 -1 11 2 17 5 13 3 -3 4 -12 1 -19z m1520
-925 c-3 -10 -5 -4 -5 12 0 17 2 24 5 18 2 -7 2 -21 0 -30z m-2392 -1215 c252
-90 275 -100 311 -133 30 -29 35 -39 32 -71 -4 -52 -44 -78 -146 -94 -69 -10
-83 -10 -110 4 -45 23 -154 128 -208 200 -39 52 -94 145 -94 160 0 7 68 -13
215 -66z"/>
<path d="M6517 4574 c-4 -4 -7 -14 -7 -23 0 -11 3 -12 11 -4 6 6 10 16 7 23
-2 6 -7 8 -11 4z"/>
<path d="M6261 3568 c-1 -38 -5 -68 -9 -68 -11 0 -46 -80 -38 -87 3 -4 6 2 6
12 0 23 16 9 23 -20 3 -11 4 0 3 25 -2 25 -1 36 2 25 9 -35 31 109 22 146 -7
29 -8 23 -9 -33z"/>
<path d="M6236 3545 c4 -8 8 -15 10 -15 2 0 4 7 4 15 0 8 -4 15 -10 15 -5 0
-7 -7 -4 -15z"/>
<path d="M6222 3520 c0 -14 2 -19 5 -12 2 6 2 18 0 25 -3 6 -5 1 -5 -13z"/>
<path d="M7220 4082 l0 -38 63 3 c166 9 207 15 207 29 0 8 -6 14 -12 14 -7 0
-62 7 -123 15 -145 19 -135 21 -135 -23z"/>
<path d="M6615 8187 c-10 -17 -19 -35 -20 -39 0 -3 41 -33 90 -65 248 -164
475 -397 702 -723 189 -272 298 -507 379 -818 34 -134 42 -187 68 -482 32
-345 29 -635 -9 -1015 -17 -177 -48 -535 -75 -870 -33 -399 -64 -558 -207
-1035 -14 -47 -45 -128 -68 -180 -71 -156 -85 -196 -72 -209 6 -6 17 -11 23
-11 13 0 72 93 94 148 7 17 24 38 37 45 22 10 33 37 79 197 99 339 157 580
191 795 l8 50 60 -72 c48 -58 66 -73 88 -73 15 0 27 5 27 10 0 35 -100 176
-136 192 -23 11 -24 14 -24 122 0 112 10 239 55 706 36 374 45 534 45 798 0
327 -36 701 -86 895 -51 203 -137 429 -219 577 -189 344 -532 760 -775 940
-93 70 -216 150 -229 150 -3 0 -15 -15 -26 -33z"/>
<path d="M8108 7023 c-10 -2 -18 -6 -18 -9 0 -2 22 -48 49 -102 222 -443 355
-896 408 -1390 24 -224 24 -784 0 -1017 -38 -380 -122 -772 -224 -1045 -52
-139 -218 -474 -317 -638 -47 -78 -86 -151 -86 -161 0 -29 28 -34 44 -8 88
137 192 321 253 447 287 590 430 1349 395 2103 -25 545 -126 1022 -309 1467
-34 82 -171 361 -176 359 -1 -1 -10 -3 -19 -6z m253 -3536 c-10 -9 -11 -8 -5
6 3 10 9 15 12 12 3 -3 0 -11 -7 -18z m-300 -624 c-12 -20 -14 -14 -5 12 4 9
9 14 11 11 3 -2 0 -13 -6 -23z m-106 -173 c3 -5 1 -10 -4 -10 -6 0 -11 5 -11
10 0 6 2 10 4 10 3 0 8 -4 11 -10z"/>
<path d="M2471 6414 c-23 -29 -29 -101 -11 -135 16 -29 28 -23 36 16 10 56 28
56 21 1 -5 -36 -4 -47 6 -44 18 6 39 56 45 105 8 76 -54 112 -97 57z"/>
<path d="M7636 6408 c-20 -29 -20 -81 0 -119 21 -42 38 -32 44 27 6 48 6 49
18 21 7 -16 12 -33 12 -38 0 -16 26 -10 45 11 23 25 13 83 -18 105 -33 23 -83
19 -101 -7z"/>
<path d="M8144 6273 c3 -16 15 -62 26 -103 44 -159 52 -309 47 -800 -4 -408
-7 -478 -31 -680 -14 -124 -28 -231 -31 -237 -2 -7 -13 -77 -24 -157 -12 -79
-23 -151 -27 -160 -4 -12 0 -16 15 -16 14 0 22 8 27 28 3 15 10 43 14 62 20
79 61 334 74 460 31 282 38 416 39 790 1 352 -1 398 -21 538 -13 85 -30 175
-39 200 -17 53 -49 102 -65 102 -6 0 -8 -11 -4 -27z"/>
<path d="M3951 4744 c7 -9 14 -23 15 -31 2 -8 6 -18 10 -21 4 -4 4 1 1 10 -3
9 -1 19 6 22 9 3 8 7 -2 14 -11 8 -11 10 0 15 8 3 1 6 -15 6 -25 1 -27 -1 -15
-15z"/>
<path d="M5771 3624 c0 -11 3 -14 6 -6 3 7 2 16 -1 19 -3 4 -6 -2 -5 -13z"/>
<path d="M2256 3340 c-8 -135 5 -309 30 -425 19 -85 78 -214 134 -294 77 -109
355 -321 368 -281 3 8 16 24 29 36 l25 23 -34 14 c-18 8 -77 48 -131 90 -242
186 -323 349 -377 757 -12 91 -25 174 -29 185 -5 12 -11 -29 -15 -105z"/>
<path d="M7925 3403 c-13 -73 -84 -273 -125 -353 -50 -101 -149 -259 -203
-325 -85 -104 -244 -232 -367 -295 -44 -22 -48 -34 -24 -68 19 -28 33 -28 97
2 296 138 572 516 642 879 20 103 20 197 1 197 -8 0 -17 -16 -21 -37z"/>
<path d="M12 102 c-7 -2 -12 -23 -12 -53 0 -48 1 -49 30 -49 29 0 30 2 30 45
0 25 -1 48 -2 52 -3 8 -29 11 -46 5z"/>
</g>
</svg>
